STARTFONT 2.1
COMMENT
COMMENT Converted from OpenType font "pixelade.ttf" by "otf2bdf 3.0".
COMMENT
FONT -FreeType-Pixelade-Medium-R-Normal--50-360-100-100-P-167-ISO10646-1
SIZE 36 100 100
FONTBOUNDINGBOX 258 51 0 -12
STARTPROPERTIES 19
FOUNDRY "FreeType"
FAMILY_NAME "Pixelade"
WEIGHT_NAME "Medium"
SLANT "R"
SETWIDTH_NAME "Normal"
ADD_STYLE_NAME ""
PIXEL_SIZE 50
POINT_SIZE 360
RESOLUTION_X 100
RESOLUTION_Y 100
SPACING "P"
AVERAGE_WIDTH 167
CHARSET_REGISTRY "ISO10646"
CHARSET_ENCODING "1"
FONT_ASCENT 38
FONT_DESCENT 11
COPYRIGHT "© 2001  josep Patau i Bellart & astramatantaviana typeface division  patau@antaviana.com, this typeface is Publishware, submit your works please, more info in www.astramat.com/typeface"
_OTF_FONTFILE "pixelade.ttf"
_OTF_PSNAME "Pixelade"
ENDPROPERTIES
CHARS 158
STARTCHAR 0020
ENCODING 32
SWIDTH 240 0
DWIDTH 12 0
BBX 0 0 0 0
BITMAP
ENDCHAR
STARTCHAR 0021
ENCODING 33
SWIDTH 160 0
DWIDTH 8 0
BBX 4 35 0 -8
BITMAP
F0
F0
F0
F0
F0
F0
F0
F0
F0
F0
F0
F0
F0
F0
F0
F0
F0
F0
F0
F0
F0
F0
F0
F0
F0
F0
F0
00
00
00
00
F0
F0
F0
F0
ENDCHAR
STARTCHAR 0022
ENCODING 34
SWIDTH 320 0
DWIDTH 16 0
BBX 12 11 0 27
BITMAP
F0F0
F0F0
F0F0
F0F0
F0F0
F0F0
F0F0
F0F0
F0F0
F0F0
F0F0
ENDCHAR
STARTCHAR 0023
ENCODING 35
SWIDTH 620 0
DWIDTH 31 0
BBX 27 27 0 0
BITMAP
00F0F000
00F0F000
00F0F000
00F0F000
00F0F000
00F0F000
00F0F000
00F0F000
FFFFFFE0
FFFFFFE0
FFFFFFE0
FFFFFFE0
00F0F000
00F0F000
00F0F000
00F0F000
FFFFFFE0
FFFFFFE0
FFFFFFE0
FFFFFFE0
00F0F000
00F0F000
00F0F000
00F0F000
00F0F000
00F0F000
00F0F000
ENDCHAR
STARTCHAR 0024
ENCODING 36
SWIDTH 480 0
DWIDTH 24 0
BBX 19 35 1 -4
BITMAP
00F000
00F000
00F000
00F000
0FFFE0
0FFFE0
0FFFE0
0FFFE0
F0F000
F0F000
F0F000
F0F000
F0F000
F0F000
F0F000
F0F000
0FFF00
0FFF00
0FFF00
00F0E0
00F0E0
00F0E0
00F0E0
00F0E0
00F0E0
00F0E0
00F0E0
FFFF00
FFFF00
FFFF00
FFFF00
00F000
00F000
00F000
00F000
ENDCHAR
STARTCHAR 0025
ENCODING 37
SWIDTH 620 0
DWIDTH 31 0
BBX 27 27 0 0
BITMAP
0F0001E0
0F0001E0
0F0001E0
0F0001E0
F0F01E00
F0F01E00
F0F01E00
F0F01E00
0F01E000
0F01E000
0F01E000
0F01E000
000E0000
000E0000
000E0000
000E0000
00F01E00
00F01E00
00F01E00
0F01E1E0
0F01E1E0
0F01E1E0
0F01E1E0
F0001E00
F0001E00
F0001E00
F0001E00
ENDCHAR
STARTCHAR 0026
ENCODING 38
SWIDTH 620 0
DWIDTH 31 0
BBX 27 27 0 0
BITMAP
0001E000
0001E000
0001E000
0001E000
000E1E00
000E1E00
000E1E00
000E1E00
0001E000
0001E000
0001E000
0001E000
FF0E1E00
FF0E1E00
FF0E1E00
00F001E0
00F001E0
00F001E0
00F001E0
00F001E0
00F001E0
00F001E0
00F001E0
0F0FFE00
0F0FFE00
0F0FFE00
0F0FFE00
ENDCHAR
STARTCHAR 0027
ENCODING 39
SWIDTH 180 0
DWIDTH 9 0
BBX 4 11 1 16
BITMAP
F0
F0
F0
F0
F0
F0
F0
F0
F0
F0
F0
ENDCHAR
STARTCHAR 0028
ENCODING 40
SWIDTH 320 0
DWIDTH 16 0
BBX 12 50 0 -12
BITMAP
00F0
00F0
00F0
00F0
0F00
0F00
0F00
0F00
F000
F000
F000
F000
F000
F000
F000
F000
F000
F000
F000
F000
F000
F000
F000
F000
F000
F000
F000
F000
F000
F000
F000
F000
F000
F000
F000
F000
F000
F000
F000
F000
F000
F000
0F00
0F00
0F00
0F00
00F0
00F0
00F0
00F0
ENDCHAR
STARTCHAR 0029
ENCODING 41
SWIDTH 320 0
DWIDTH 16 0
BBX 12 50 0 -12
BITMAP
F000
F000
F000
F000
0F00
0F00
0F00
0F00
00F0
00F0
00F0
00F0
00F0
00F0
00F0
00F0
00F0
00F0
00F0
00F0
00F0
00F0
00F0
00F0
00F0
00F0
00F0
00F0
00F0
00F0
00F0
00F0
00F0
00F0
00F0
00F0
00F0
00F0
00F0
00F0
00F0
00F0
0F00
0F00
0F00
0F00
F000
F000
F000
F000
ENDCHAR
STARTCHAR 002A
ENCODING 42
SWIDTH 460 0
DWIDTH 23 0
BBX 19 20 0 19
BITMAP
00F000
00F000
00F000
00F000
F0F1E0
F0F1E0
F0F1E0
F0F1E0
0FFE00
0FFE00
0FFE00
0FFE00
F0F1E0
F0F1E0
F0F1E0
F0F1E0
00F000
00F000
00F000
00F000
ENDCHAR
STARTCHAR 002B
ENCODING 43
SWIDTH 460 0
DWIDTH 23 0
BBX 19 19 0 0
BITMAP
00F000
00F000
00F000
00F000
00F000
00F000
00F000
00F000
FFFFE0
FFFFE0
FFFFE0
FFFFE0
00F000
00F000
00F000
00F000
00F000
00F000
00F000
ENDCHAR
STARTCHAR 002C
ENCODING 44
SWIDTH 220 0
DWIDTH 11 0
BBX 8 11 0 -4
BITMAP
0F
0F
0F
0F
0F
0F
0F
F0
F0
F0
F0
ENDCHAR
STARTCHAR 002D
ENCODING 45
SWIDTH 380 0
DWIDTH 19 0
BBX 15 4 0 11
BITMAP
FFFE
FFFE
FFFE
FFFE
ENDCHAR
STARTCHAR 002E
ENCODING 46
SWIDTH 160 0
DWIDTH 8 0
BBX 4 4 0 0
BITMAP
F0
F0
F0
F0
ENDCHAR
STARTCHAR 002F
ENCODING 47
SWIDTH 620 0
DWIDTH 31 0
BBX 27 27 0 0
BITMAP
000001E0
000001E0
000001E0
000001E0
00001E00
00001E00
00001E00
00001E00
0001E000
0001E000
0001E000
0001E000
000E0000
000E0000
000E0000
000E0000
00F00000
00F00000
00F00000
0F000000
0F000000
0F000000
0F000000
F0000000
F0000000
F0000000
F0000000
ENDCHAR
STARTCHAR 0030
ENCODING 48
SWIDTH 400 0
DWIDTH 20 0
BBX 15 27 1 0
BITMAP
0FF0
0FF0
0FF0
0FF0
F00E
F00E
F00E
F00E
F00E
F00E
F00E
F00E
F00E
F00E
F00E
F00E
F00E
F00E
F00E
F00E
F00E
F00E
F00E
0FF0
0FF0
0FF0
0FF0
ENDCHAR
STARTCHAR 0031
ENCODING 49
SWIDTH 260 0
DWIDTH 13 0
BBX 8 27 1 0
BITMAP
0F
0F
0F
0F
FF
FF
FF
FF
0F
0F
0F
0F
0F
0F
0F
0F
0F
0F
0F
0F
0F
0F
0F
0F
0F
0F
0F
ENDCHAR
STARTCHAR 0032
ENCODING 50
SWIDTH 400 0
DWIDTH 20 0
BBX 15 27 1 0
BITMAP
FFF0
FFF0
FFF0
FFF0
000E
000E
000E
000E
000E
000E
000E
000E
0FF0
0FF0
0FF0
0FF0
F000
F000
F000
F000
F000
F000
F000
FFFE
FFFE
FFFE
FFFE
ENDCHAR
STARTCHAR 0033
ENCODING 51
SWIDTH 400 0
DWIDTH 20 0
BBX 15 27 1 0
BITMAP
FFF0
FFF0
FFF0
FFF0
000E
000E
000E
000E
000E
000E
000E
000E
0FF0
0FF0
0FF0
000E
000E
000E
000E
000E
000E
000E
000E
FFF0
FFF0
FFF0
FFF0
ENDCHAR
STARTCHAR 0034
ENCODING 52
SWIDTH 400 0
DWIDTH 20 0
BBX 15 27 1 0
BITMAP
F01E
F01E
F01E
F01E
F01E
F01E
F01E
F01E
F01E
F01E
F01E
101E
0FFE
0FFE
0FFE
0FFE
001E
001E
001E
001E
001E
001E
001E
001E
001E
001E
001E
ENDCHAR
STARTCHAR 0035
ENCODING 53
SWIDTH 400 0
DWIDTH 20 0
BBX 15 27 1 0
BITMAP
FFFE
FFFE
FFFE
FFFE
F000
F000
F000
F000
F000
F000
F000
F000
FFF0
FFF0
FFF0
000E
000E
000E
000E
000E
000E
000E
000E
FFF0
FFF0
FFF0
FFF0
ENDCHAR
STARTCHAR 0036
ENCODING 54
SWIDTH 400 0
DWIDTH 20 0
BBX 15 27 1 0
BITMAP
0FF0
0FF0
0FF0
0FF0
F000
F000
F000
F000
F000
F000
F000
F000
FFF0
FFF0
FFF0
F00E
F00E
F00E
F00E
F00E
F00E
F00E
F00E
0FF0
0FF0
0FF0
0FF0
ENDCHAR
STARTCHAR 0037
ENCODING 55
SWIDTH 400 0
DWIDTH 20 0
BBX 16 27 0 0
BITMAP
FFFF
FFFF
FFFF
FFFF
000F
000F
000F
000F
000F
000F
000F
00F0
00F0
00F0
00F0
00F0
00F0
00F0
00F0
00F0
00F0
00F0
00F0
00F0
00F0
00F0
00F0
ENDCHAR
STARTCHAR 0038
ENCODING 56
SWIDTH 400 0
DWIDTH 20 0
BBX 15 27 1 0
BITMAP
0FF0
0FF0
0FF0
0FF0
F00E
F00E
F00E
F00E
F00E
F00E
F00E
F00E
0FF0
0FF0
0FF0
F00E
F00E
F00E
F00E
F00E
F00E
F00E
F00E
0FF0
0FF0
0FF0
0FF0
ENDCHAR
STARTCHAR 0039
ENCODING 57
SWIDTH 400 0
DWIDTH 20 0
BBX 15 27 1 0
BITMAP
0FF0
0FF0
0FF0
0FF0
F00E
F00E
F00E
F00E
F00E
F00E
F00E
F00E
0FFE
0FFE
0FFE
0FFE
000E
000E
000E
000E
000E
000E
000E
0FF0
0FF0
0FF0
0FF0
ENDCHAR
STARTCHAR 003A
ENCODING 58
SWIDTH 180 0
DWIDTH 9 0
BBX 4 15 1 0
BITMAP
F0
F0
F0
F0
00
00
00
00
00
00
00
F0
F0
F0
F0
ENDCHAR
STARTCHAR 003B
ENCODING 59
SWIDTH 240 0
DWIDTH 12 0
BBX 8 19 0 -4
BITMAP
0F
0F
0F
0F
00
00
00
00
0F
0F
0F
0F
0F
0F
0F
F0
F0
F0
F0
ENDCHAR
STARTCHAR 003C
ENCODING 60
SWIDTH 400 0
DWIDTH 20 0
BBX 15 27 1 0
BITMAP
000E
000E
000E
000E
00F0
00F0
00F0
00F0
0F00
0F00
0F00
0F00
F000
F000
F000
F000
0F00
0F00
0F00
0F00
00F0
00F0
00F0
000E
000E
000E
000E
ENDCHAR
STARTCHAR 003D
ENCODING 61
SWIDTH 460 0
DWIDTH 23 0
BBX 19 12 0 7
BITMAP
FFFFE0
FFFFE0
FFFFE0
FFFFE0
000000
000000
000000
000000
FFFFE0
FFFFE0
FFFFE0
FFFFE0
ENDCHAR
STARTCHAR 003E
ENCODING 62
SWIDTH 400 0
DWIDTH 20 0
BBX 15 27 1 0
BITMAP
F000
F000
F000
F000
0F00
0F00
0F00
0F00
00F0
00F0
00F0
00F0
000E
000E
000E
000E
00F0
00F0
00F0
00F0
0F00
0F00
0F00
F000
F000
F000
F000
ENDCHAR
STARTCHAR 003F
ENCODING 63
SWIDTH 400 0
DWIDTH 20 0
BBX 15 27 1 0
BITMAP
0FF0
0FF0
0FF0
0FF0
F00E
F00E
F00E
F00E
000E
000E
000E
000E
00F0
00F0
00F0
00F0
0F00
0F00
0F00
0F00
0000
0000
0000
0F00
0F00
0F00
0F00
ENDCHAR
STARTCHAR 0040
ENCODING 64
SWIDTH 620 0
DWIDTH 31 0
BBX 27 27 0 -8
BITMAP
00FFFE00
00FFFE00
00FFFE00
00FFFE00
0F0001E0
0F0001E0
0F0001E0
0F0001E0
F00FE1E0
F00FE1E0
F00FE1E0
F00FE1E0
F0F1E1E0
F0F1E1E0
F0F1E1E0
F00FFE00
F00FFE00
F00FFE00
F00FFE00
0F000000
0F000000
0F000000
0F000000
00FFFFE0
00FFFFE0
00FFFFE0
00FFFFE0
ENDCHAR
STARTCHAR 0041
ENCODING 65
SWIDTH 400 0
DWIDTH 20 0
BBX 15 27 1 0
BITMAP
0FF0
0FF0
0FF0
0FF0
F00E
F00E
F00E
F00E
F00E
F00E
F00E
F00E
FFFE
FFFE
FFFE
FFFE
F00E
F00E
F00E
F00E
F00E
F00E
F00E
F00E
F00E
F00E
F00E
ENDCHAR
STARTCHAR 0042
ENCODING 66
SWIDTH 400 0
DWIDTH 20 0
BBX 15 27 1 0
BITMAP
FFF0
FFF0
FFF0
FFF0
F00E
F00E
F00E
F00E
F00E
F00E
F00E
F00E
FFF0
FFF0
FFF0
F00E
F00E
F00E
F00E
F00E
F00E
F00E
F00E
FFF0
FFF0
FFF0
FFF0
ENDCHAR
STARTCHAR 0043
ENCODING 67
SWIDTH 420 0
DWIDTH 21 0
BBX 16 27 1 0
BITMAP
0FFF
0FFF
0FFF
0FFF
F000
F000
F000
F000
F000
F000
F000
F000
F000
F000
F000
F000
F000
F000
F000
F000
F000
F000
F000
0FFF
0FFF
0FFF
0FFF
ENDCHAR
STARTCHAR 0044
ENCODING 68
SWIDTH 400 0
DWIDTH 20 0
BBX 15 27 1 0
BITMAP
FFF0
FFF0
FFF0
FFF0
F00E
F00E
F00E
F00E
F00E
F00E
F00E
F00E
F00E
F00E
F00E
F00E
F00E
F00E
F00E
F00E
F00E
F00E
F00E
FFF0
FFF0
FFF0
FFF0
ENDCHAR
STARTCHAR 0045
ENCODING 69
SWIDTH 380 0
DWIDTH 19 0
BBX 16 27 0 0
BITMAP
FFFF
FFFF
FFFF
FFFF
F000
F000
F000
F000
F000
F000
F000
F000
FFF8
FFF8
FFF8
FFF8
F000
F000
F000
F000
F000
F000
F000
FFFF
FFFF
FFFF
FFFF
ENDCHAR
STARTCHAR 0046
ENCODING 70
SWIDTH 380 0
DWIDTH 19 0
BBX 16 27 0 0
BITMAP
FFFF
FFFF
FFFF
FFFF
F000
F000
F000
F000
F000
F000
F000
F000
FFFF
FFFF
FFFF
FFFF
F000
F000
F000
F000
F000
F000
F000
F000
F000
F000
F000
ENDCHAR
STARTCHAR 0047
ENCODING 71
SWIDTH 400 0
DWIDTH 20 0
BBX 15 27 1 0
BITMAP
0FFE
0FFE
0FFE
0FFE
F000
F000
F000
F000
F000
F000
F000
F000
F0FE
F0FE
F0FE
F0FE
F00E
F00E
F00E
F00E
F00E
F00E
F00E
0FF0
0FF0
0FF0
0FF0
ENDCHAR
STARTCHAR 0048
ENCODING 72
SWIDTH 400 0
DWIDTH 20 0
BBX 15 27 1 0
BITMAP
F01E
F01E
F01E
F01E
F01E
F01E
F01E
F01E
F01E
F01E
F01E
F01E
FFFE
FFFE
FFFE
FFFE
F01E
F01E
F01E
F01E
F01E
F01E
F01E
F01E
F01E
F01E
F01E
ENDCHAR
STARTCHAR 0049
ENCODING 73
SWIDTH 320 0
DWIDTH 16 0
BBX 12 27 0 0
BITMAP
FFF0
FFF0
FFF0
FFF0
0F00
0F00
0F00
0F00
0F00
0F00
0F00
0F00
0F00
0F00
0F00
0F00
0F00
0F00
0F00
0F00
0F00
0F00
0F00
FFF0
FFF0
FFF0
FFF0
ENDCHAR
STARTCHAR 004A
ENCODING 74
SWIDTH 400 0
DWIDTH 20 0
BBX 15 27 1 0
BITMAP
000E
000E
000E
000E
000E
000E
000E
000E
000E
000E
000E
000E
000E
000E
000E
F00E
F00E
F00E
F00E
F00E
F00E
F00E
F00E
0FF0
0FF0
0FF0
0FF0
ENDCHAR
STARTCHAR 004B
ENCODING 75
SWIDTH 400 0
DWIDTH 20 0
BBX 15 27 1 0
BITMAP
F00E
F00E
F00E
F00E
F00E
F00E
F00E
F00E
F0F0
F0F0
F0F0
F0F0
FF00
FF00
FF00
FF00
F0F0
F0F0
F0F0
F00E
F00E
F00E
F00E
F00E
F00E
F00E
F00E
ENDCHAR
STARTCHAR 004C
ENCODING 76
SWIDTH 400 0
DWIDTH 20 0
BBX 16 27 1 0
BITMAP
F000
F000
F000
F000
F000
F000
F000
F000
F000
F000
F000
F000
F000
F000
F000
F000
F000
F000
F000
F000
F000
F000
F000
FFFF
FFFF
FFFF
FFFF
ENDCHAR
STARTCHAR 004D
ENCODING 77
SWIDTH 540 0
DWIDTH 27 0
BBX 23 27 0 0
BITMAP
F0001E
F0001E
F0001E
F0001E
FF00FE
FF00FE
FF00FE
FF00FE
F0FF1E
F0FF1E
F0FF1E
F0FF1E
F0001E
F0001E
F0001E
F0001E
F0001E
F0001E
F0001E
F0001E
F0001E
F0001E
F0001E
F0001E
F0001E
F0001E
F0001E
ENDCHAR
STARTCHAR 004E
ENCODING 78
SWIDTH 460 0
DWIDTH 23 0
BBX 19 27 0 0
BITMAP
FF01E0
FF01E0
FF01E0
FF01E0
FF01E0
FF01E0
FF01E0
FF01E0
F0F1E0
F0F1E0
F0F1E0
F0F1E0
F0F1E0
F0F1E0
F0F1E0
F0F1E0
F0F1E0
F0F1E0
F0F1E0
F00FE0
F00FE0
F00FE0
F00FE0
F00FE0
F00FE0
F00FE0
F00FE0
ENDCHAR
STARTCHAR 004F
ENCODING 79
SWIDTH 460 0
DWIDTH 23 0
BBX 19 27 0 0
BITMAP
0FFF00
0FFF00
0FFF00
0FFF00
F000E0
F000E0
F000E0
F000E0
F000E0
F000E0
F000E0
F000E0
F000E0
F000E0
F000E0
F000E0
F000E0
F000E0
F000E0
F000E0
F000E0
F000E0
F000E0
0FFF00
0FFF00
0FFF00
0FFF00
ENDCHAR
STARTCHAR 0050
ENCODING 80
SWIDTH 400 0
DWIDTH 20 0
BBX 15 27 1 0
BITMAP
FFF0
FFF0
FFF0
FFF0
F00E
F00E
F00E
F00E
F00E
F00E
F00E
F00E
FFF0
FFF0
FFF0
FFF0
F000
F000
F000
F000
F000
F000
F000
F000
F000
F000
F000
ENDCHAR
STARTCHAR 0051
ENCODING 81
SWIDTH 400 0
DWIDTH 20 0
BBX 15 31 1 -4
BITMAP
0FF0
0FF0
0FF0
0FF0
F00E
F00E
F00E
F00E
F00E
F00E
F00E
F00E
F00E
F00E
F00E
F00E
F00E
F00E
F00E
F00E
F00E
F00E
F00E
0FF0
0FF0
0FF0
0FF0
00F0
00F0
00F0
00F0
ENDCHAR
STARTCHAR 0052
ENCODING 82
SWIDTH 400 0
DWIDTH 20 0
BBX 15 27 1 0
BITMAP
FFF0
FFF0
FFF0
FFF0
F00E
F00E
F00E
F00E
F00E
F00E
F00E
F00E
FFF0
FFF0
FFF0
FFF0
F00E
F00E
F00E
F00E
F00E
F00E
F00E
F00E
F00E
F00E
F00E
ENDCHAR
STARTCHAR 0053
ENCODING 83
SWIDTH 400 0
DWIDTH 20 0
BBX 15 27 1 0
BITMAP
0FFE
0FFE
0FFE
0FFE
F000
F000
F000
F000
F000
F000
F000
F000
0FF0
0FF0
0FF0
000E
000E
000E
000E
000E
000E
000E
000E
FFF0
FFF0
FFF0
FFF0
ENDCHAR
STARTCHAR 0054
ENCODING 84
SWIDTH 480 0
DWIDTH 24 0
BBX 19 27 1 0
BITMAP
FFFFE0
FFFFE0
FFFFE0
FFFFE0
00F000
00F000
00F000
00F000
00F000
00F000
00F000
00F000
00F000
00F000
00F000
00F000
00F000
00F000
00F000
00F000
00F000
00F000
00F000
00F000
00F000
00F000
00F000
ENDCHAR
STARTCHAR 0055
ENCODING 85
SWIDTH 400 0
DWIDTH 20 0
BBX 15 27 1 0
BITMAP
F00E
F00E
F00E
F00E
F00E
F00E
F00E
F00E
F00E
F00E
F00E
F00E
F00E
F00E
F00E
F00E
F00E
F00E
F00E
F00E
F00E
F00E
F00E
0FF0
0FF0
0FF0
0FF0
ENDCHAR
STARTCHAR 0056
ENCODING 86
SWIDTH 460 0
DWIDTH 23 0
BBX 19 27 0 0
BITMAP
F001E0
F001E0
F001E0
F001E0
F001E0
F001E0
F001E0
F001E0
F001E0
F001E0
F001E0
000000
0F0E00
0F0E00
0F0E00
0F0E00
0F0E00
0F0E00
0F0E00
0F0E00
0F0E00
0F0E00
0F0E00
00F000
00F000
00F000
00F000
ENDCHAR
STARTCHAR 0057
ENCODING 87
SWIDTH 620 0
DWIDTH 31 0
BBX 27 27 0 0
BITMAP
F00001E0
F00001E0
F00001E0
F00001E0
F00001E0
F00001E0
F00001E0
F00001E0
F00E01E0
F00E01E0
F00E01E0
0F0E1E00
0F0E1E00
0F0E1E00
0F0E1E00
0F0E1E00
0F0E1E00
0F0E1E00
0F0E1E00
0F0E1E00
0F0E1E00
0F0E1E00
0F0E1E00
0FF1FE00
0FF1FE00
0FF1FE00
0FF1FE00
ENDCHAR
STARTCHAR 0058
ENCODING 88
SWIDTH 460 0
DWIDTH 23 0
BBX 19 27 0 0
BITMAP
F001E0
F001E0
F001E0
F001E0
0F0E00
0F0E00
0F0E00
0F0E00
0F0E00
0F0E00
0F0E00
0F0E00
00F000
00F000
00F000
0F0E00
0F0E00
0F0E00
0F0E00
0F0E00
0F0E00
0F0E00
0F0E00
F001E0
F001E0
F001E0
F001E0
ENDCHAR
STARTCHAR 0059
ENCODING 89
SWIDTH 460 0
DWIDTH 23 0
BBX 19 27 0 0
BITMAP
F001E0
F001E0
F001E0
F001E0
F001E0
F001E0
F001E0
F001E0
0F0E00
0F0E00
0F0E00
0F0E00
0F0E00
0F0E00
0F0E00
0F0E00
00F000
00F000
00F000
00F000
00F000
00F000
00F000
00F000
00F000
00F000
00F000
ENDCHAR
STARTCHAR 005A
ENCODING 90
SWIDTH 460 0
DWIDTH 23 0
BBX 19 27 0 0
BITMAP
FFFFE0
FFFFE0
FFFFE0
FFFFE0
0001E0
0001E0
0001E0
0001E0
000E00
000E00
000E00
000E00
00F000
00F000
00F000
00F000
0F0000
0F0000
0F0000
F00000
F00000
F00000
F00000
FFFFE0
FFFFE0
FFFFE0
FFFFE0
ENDCHAR
STARTCHAR 005B
ENCODING 91
SWIDTH 300 0
DWIDTH 15 0
BBX 12 49 0 -11
BITMAP
FFF0
FFF0
FFF0
FFF0
F000
F000
F000
F000
F000
F000
F000
F000
F000
F000
F000
F000
F000
F000
F000
F000
F000
F000
F000
F000
F000
F000
F000
F000
F000
F000
F000
F000
F000
F000
F000
F000
F000
F000
F000
F000
F000
F000
F000
F000
F000
FFF0
FFF0
FFF0
FFF0
ENDCHAR
STARTCHAR 005C
ENCODING 92
SWIDTH 620 0
DWIDTH 31 0
BBX 27 27 0 0
BITMAP
F0000000
F0000000
F0000000
F0000000
0F000000
0F000000
0F000000
0F000000
00F00000
00F00000
00F00000
00F00000
000E0000
000E0000
000E0000
000E0000
0001E000
0001E000
0001E000
00001E00
00001E00
00001E00
00001E00
000001E0
000001E0
000001E0
000001E0
ENDCHAR
STARTCHAR 005D
ENCODING 93
SWIDTH 320 0
DWIDTH 16 0
BBX 12 49 0 -11
BITMAP
FFF0
FFF0
FFF0
FFF0
00F0
00F0
00F0
00F0
00F0
00F0
00F0
00F0
00F0
00F0
00F0
00F0
00F0
00F0
00F0
00F0
00F0
00F0
00F0
00F0
00F0
00F0
00F0
00F0
00F0
00F0
00F0
00F0
00F0
00F0
00F0
00F0
00F0
00F0
00F0
00F0
00F0
00F0
00F0
00F0
00F0
FFF0
FFF0
FFF0
FFF0
ENDCHAR
STARTCHAR 005E
ENCODING 94
SWIDTH 300 0
DWIDTH 15 0
BBX 0 0 0 0
BITMAP
ENDCHAR
STARTCHAR 005F
ENCODING 95
SWIDTH 400 0
DWIDTH 20 0
BBX 15 4 1 0
BITMAP
FFFE
FFFE
FFFE
FFFE
ENDCHAR
STARTCHAR 0060
ENCODING 96
SWIDTH 220 0
DWIDTH 11 0
BBX 8 8 0 19
BITMAP
F0
90
90
90
7F
11
11
1F
ENDCHAR
STARTCHAR 0061
ENCODING 97
SWIDTH 380 0
DWIDTH 19 0
BBX 15 19 0 0
BITMAP
0FF0
0FF0
0FF0
0FF0
000E
000E
000E
000E
0FFE
0FFE
0FFE
F00E
F00E
F00E
F00E
0FFE
0FFE
0FFE
0FFE
ENDCHAR
STARTCHAR 0062
ENCODING 98
SWIDTH 380 0
DWIDTH 19 0
BBX 15 27 0 0
BITMAP
F000
F000
F000
F000
F000
F000
F000
F000
FFF0
FFF0
FFF0
FFF0
F00E
F00E
F00E
F00E
F00E
F00E
F00E
F00E
F00E
F00E
F00E
FFF0
FFF0
FFF0
FFF0
ENDCHAR
STARTCHAR 0063
ENCODING 99
SWIDTH 400 0
DWIDTH 20 0
BBX 16 19 0 0
BITMAP
0FFF
0FFF
0FFF
0FFF
F000
F000
F000
F000
F000
F000
F000
F000
F000
F000
F000
0FFF
0FFF
0FFF
0FFF
ENDCHAR
STARTCHAR 0064
ENCODING 100
SWIDTH 400 0
DWIDTH 20 0
BBX 15 27 1 0
BITMAP
001E
001E
001E
001E
001E
001E
001E
001E
0FFE
0FFE
0FFE
0FFE
F01E
F01E
F01E
F01E
F01E
F01E
F01E
F01E
F01E
F01E
F01E
0FFE
0FFE
0FFE
0FFE
ENDCHAR
STARTCHAR 0065
ENCODING 101
SWIDTH 380 0
DWIDTH 19 0
BBX 15 19 0 0
BITMAP
0FF0
0FF0
0FF0
0FF0
F00E
F00E
F00E
F00E
FFF0
FFF0
FFF0
FFF0
F000
F000
F000
0FF0
0FF0
0FF0
0FF0
ENDCHAR
STARTCHAR 0066
ENCODING 102
SWIDTH 420 0
DWIDTH 21 0
BBX 16 27 1 0
BITMAP
00FF
00FF
00FF
00FF
0F00
0F00
0F00
0F00
FFF0
FFF0
FFF0
FFF0
0F00
0F00
0F00
0F00
0F00
0F00
0F00
0F00
0F00
0F00
0F00
0F00
0F00
0F00
0F00
ENDCHAR
STARTCHAR 0067
ENCODING 103
SWIDTH 400 0
DWIDTH 20 0
BBX 15 27 1 -8
BITMAP
0FF0
0FF0
0FF0
0FF0
F00E
F00E
F00E
F00E
F00E
F00E
F00E
F00E
F00E
F00E
F00E
0FFE
0FFE
0FFE
0FFE
000E
000E
000E
000E
0FF0
0FF0
0FF0
0FF0
ENDCHAR
STARTCHAR 0068
ENCODING 104
SWIDTH 400 0
DWIDTH 20 0
BBX 15 27 1 0
BITMAP
F000
F000
F000
F000
F000
F000
F000
F000
FFF0
FFF0
FFF0
FFF0
F00E
F00E
F00E
F00E
F00E
F00E
F00E
F00E
F00E
F00E
F00E
F00E
F00E
F00E
F00E
ENDCHAR
STARTCHAR 0069
ENCODING 105
SWIDTH 180 0
DWIDTH 9 0
BBX 4 27 1 0
BITMAP
F0
F0
F0
F0
00
00
00
00
F0
F0
F0
F0
F0
F0
F0
F0
F0
F0
F0
F0
F0
F0
F0
F0
F0
F0
F0
ENDCHAR
STARTCHAR 006A
ENCODING 106
SWIDTH 240 0
DWIDTH 12 0
BBX 8 35 0 -8
BITMAP
0F
0F
0F
0F
00
00
00
00
0F
0F
0F
0F
0F
0F
0F
0F
0F
0F
0F
0F
0F
0F
0F
0F
0F
0F
0F
0F
0F
0F
0F
F0
F0
F0
F0
ENDCHAR
STARTCHAR 006B
ENCODING 107
SWIDTH 400 0
DWIDTH 20 0
BBX 15 27 1 0
BITMAP
F000
F000
F000
F000
F00E
F00E
F00E
F00E
F0F0
F0F0
F0F0
F0F0
FF00
FF00
FF00
FF00
F0F0
F0F0
F0F0
F00E
F00E
F00E
F00E
F00E
F00E
F00E
F00E
ENDCHAR
STARTCHAR 006C
ENCODING 108
SWIDTH 180 0
DWIDTH 9 0
BBX 4 27 1 0
BITMAP
F0
F0
F0
F0
F0
F0
F0
F0
F0
F0
F0
F0
F0
F0
F0
F0
F0
F0
F0
F0
F0
F0
F0
F0
F0
F0
F0
ENDCHAR
STARTCHAR 006D
ENCODING 109
SWIDTH 620 0
DWIDTH 31 0
BBX 27 19 0 0
BITMAP
FFFFFE00
FFFFFE00
FFFFFE00
FFFFFE00
F01E01E0
F01E01E0
F01E01E0
F01E01E0
F01E01E0
F01E01E0
F01E01E0
F01E01E0
F01E01E0
F01E01E0
F01E01E0
F01E01E0
F01E01E0
F01E01E0
F01E01E0
ENDCHAR
STARTCHAR 006E
ENCODING 110
SWIDTH 400 0
DWIDTH 20 0
BBX 15 19 1 0
BITMAP
FFF0
FFF0
FFF0
FFF0
F00E
F00E
F00E
F00E
F00E
F00E
F00E
F00E
F00E
F00E
F00E
F00E
F00E
F00E
F00E
ENDCHAR
STARTCHAR 006F
ENCODING 111
SWIDTH 380 0
DWIDTH 19 0
BBX 15 19 0 0
BITMAP
0FF0
0FF0
0FF0
0FF0
F00E
F00E
F00E
F00E
F00E
F00E
F00E
F00E
F00E
F00E
F00E
0FF0
0FF0
0FF0
0FF0
ENDCHAR
STARTCHAR 0070
ENCODING 112
SWIDTH 380 0
DWIDTH 19 0
BBX 15 27 0 -8
BITMAP
FFF0
FFF0
FFF0
FFF0
F00E
F00E
F00E
F00E
F00E
F00E
F00E
F00E
F00E
F00E
F00E
FFF0
FFF0
FFF0
FFF0
F000
F000
F000
F000
F000
F000
F000
F000
ENDCHAR
STARTCHAR 0071
ENCODING 113
SWIDTH 400 0
DWIDTH 20 0
BBX 15 27 1 -8
BITMAP
0FFE
0FFE
0FFE
0FFE
F01E
F01E
F01E
F01E
F01E
F01E
F01E
F01E
F01E
F01E
F01E
0FFE
0FFE
0FFE
0FFE
001E
001E
001E
001E
001E
001E
001E
001E
ENDCHAR
STARTCHAR 0072
ENCODING 114
SWIDTH 400 0
DWIDTH 20 0
BBX 16 19 0 0
BITMAP
F0FF
F0FF
F0FF
F0FF
FF00
FF00
FF00
FF00
F000
F000
F000
F000
F000
F000
F000
F000
F000
F000
F000
ENDCHAR
STARTCHAR 0073
ENCODING 115
SWIDTH 380 0
DWIDTH 19 0
BBX 15 19 0 0
BITMAP
0FFE
0FFE
0FFE
0FFE
F000
F000
F000
F000
0FF0
0FF0
0FF0
000E
000E
000E
000E
FFF0
FFF0
FFF0
FFF0
ENDCHAR
STARTCHAR 0074
ENCODING 116
SWIDTH 240 0
DWIDTH 12 0
BBX 8 27 0 0
BITMAP
F0
F0
F0
F0
F0
F0
F0
F0
FF
FF
FF
FF
F0
F0
F0
F0
F0
F0
F0
F0
F0
F0
F0
0F
0F
0F
0F
ENDCHAR
STARTCHAR 0075
ENCODING 117
SWIDTH 380 0
DWIDTH 19 0
BBX 15 19 0 0
BITMAP
F01E
F01E
F01E
F01E
F01E
F01E
F01E
F01E
F01E
F01E
F01E
F01E
F01E
F01E
F01E
0FFE
0FFE
0FFE
0FFE
ENDCHAR
STARTCHAR 0076
ENCODING 118
SWIDTH 380 0
DWIDTH 19 0
BBX 15 19 0 0
BITMAP
F00E
F00E
F00E
F00E
F00E
F00E
F00E
F00E
F00E
F00E
F00E
0F0E
0F0E
0F0E
0F0E
00F0
00F0
00F0
00F0
ENDCHAR
STARTCHAR 0077
ENCODING 119
SWIDTH 620 0
DWIDTH 31 0
BBX 27 19 0 0
BITMAP
F00001E0
F00001E0
F00001E0
F00001E0
F00E01E0
F00E01E0
F00E01E0
F00E01E0
F00E01E0
F00E01E0
F00E01E0
F00E01E0
F00E01E0
F00E01E0
F00E01E0
0FF1FE00
0FF1FE00
0FF1FE00
0FF1FE00
ENDCHAR
STARTCHAR 0078
ENCODING 120
SWIDTH 460 0
DWIDTH 23 0
BBX 19 19 0 0
BITMAP
F001E0
F001E0
F001E0
F001E0
0F0E00
0F0E00
0F0E00
0F0E00
00F000
00F000
00F000
0F0E00
0F0E00
0F0E00
0F0E00
F001E0
F001E0
F001E0
F001E0
ENDCHAR
STARTCHAR 0079
ENCODING 121
SWIDTH 400 0
DWIDTH 20 0
BBX 15 27 1 -8
BITMAP
F00E
F00E
F00E
F00E
F00E
F00E
F00E
F00E
F00E
F00E
F00E
F00E
F00E
F00E
F00E
0FFE
0FFE
0FFE
0FFE
000E
000E
000E
000E
0FF0
0FF0
0FF0
0FF0
ENDCHAR
STARTCHAR 007A
ENCODING 122
SWIDTH 380 0
DWIDTH 19 0
BBX 15 19 0 0
BITMAP
FFFE
FFFE
FFFE
FFFE
000E
000E
000E
000E
0FF0
0FF0
0FF0
F000
F000
F000
F000
FFFE
FFFE
FFFE
FFFE
ENDCHAR
STARTCHAR 007B
ENCODING 123
SWIDTH 300 0
DWIDTH 15 0
BBX 12 27 0 0
BITMAP
0FF0
0FF0
0FF0
0FF0
0F00
0F00
0F00
0F00
0F00
0F00
0F00
0F00
F000
F000
F000
F000
0F00
0F00
0F00
0F00
0F00
0F00
0F00
0FF0
0FF0
0FF0
0FF0
ENDCHAR
STARTCHAR 007C
ENCODING 124
SWIDTH 180 0
DWIDTH 9 0
BBX 4 27 1 0
BITMAP
F0
F0
F0
F0
F0
F0
F0
F0
F0
F0
F0
F0
F0
F0
F0
F0
F0
F0
F0
F0
F0
F0
F0
F0
F0
F0
F0
ENDCHAR
STARTCHAR 007D
ENCODING 125
SWIDTH 320 0
DWIDTH 16 0
BBX 12 27 0 0
BITMAP
FF00
FF00
FF00
FF00
0F00
0F00
0F00
0F00
0F00
0F00
0F00
0F00
00F0
00F0
00F0
00F0
0F00
0F00
0F00
0F00
0F00
0F00
0F00
FF00
FF00
FF00
FF00
ENDCHAR
STARTCHAR 007E
ENCODING 126
SWIDTH 380 0
DWIDTH 19 0
BBX 0 0 0 0
BITMAP
ENDCHAR
STARTCHAR 00A0
ENCODING 160
SWIDTH 380 0
DWIDTH 19 0
BBX 0 0 0 0
BITMAP
ENDCHAR
STARTCHAR 00A1
ENCODING 161
SWIDTH 160 0
DWIDTH 8 0
BBX 4 34 0 0
BITMAP
F0
F0
F0
F0
00
00
00
F0
F0
F0
F0
F0
F0
F0
F0
F0
F0
F0
F0
F0
F0
F0
F0
F0
F0
F0
F0
F0
F0
F0
F0
F0
F0
F0
ENDCHAR
STARTCHAR 00A8
ENCODING 168
SWIDTH 320 0
DWIDTH 16 0
BBX 12 4 0 23
BITMAP
F1F0
9110
9110
F1F0
ENDCHAR
STARTCHAR 00A9
ENCODING 169
SWIDTH 700 0
DWIDTH 35 0
BBX 31 27 0 0
BITMAP
00FFFE00
00FFFE00
00FFFE00
00FFFE00
0F0001E0
0F0001E0
0F0001E0
0F0001E0
F00FE01E
F00FE01E
F00FE01E
F00FE01E
F0F0001E
F0F0001E
F0F0001E
F0F0001E
F00FE01E
F00FE01E
F00FE01E
0F0001E0
0F0001E0
0F0001E0
0F0001E0
00FFFE00
00FFFE00
00FFFE00
00FFFE00
ENDCHAR
STARTCHAR 00AA
ENCODING 170
SWIDTH 300 0
DWIDTH 15 0
BBX 12 19 0 8
BITMAP
0FF0
0FF0
0FF0
0FF0
F0F0
F0F0
F0F0
F0F0
0FF0
0FF0
0FF0
0FF0
0000
0000
0000
FFF0
FFF0
FFF0
FFF0
ENDCHAR
STARTCHAR 00AB
ENCODING 171
SWIDTH 720 0
DWIDTH 36 0
BBX 31 27 1 0
BITMAP
000E001E
000E001E
000E001E
000E001E
00F001E0
00F001E0
00F001E0
00F001E0
0F001E00
0F001E00
0F001E00
0F001E00
F001E000
F001E000
F001E000
F001E000
0F001E00
0F001E00
0F001E00
0F001E00
00F001E0
00F001E0
00F001E0
000E001E
000E001E
000E001E
000E001E
ENDCHAR
STARTCHAR 00AE
ENCODING 174
SWIDTH 720 0
DWIDTH 36 0
BBX 31 27 1 0
BITMAP
00FFFE00
00FFFE00
00FFFE00
00FFFE00
0F0001E0
0F0001E0
0F0001E0
0F0001E0
F00FE01E
F00FE01E
F00FE01E
F00FE01E
F00FE01E
F00FE01E
F00FE01E
F00FE01E
F00F1E1E
F00F1E1E
F00F1E1E
0F0001E0
0F0001E0
0F0001E0
0F0001E0
00FFFE00
00FFFE00
00FFFE00
00FFFE00
ENDCHAR
STARTCHAR 00B4
ENCODING 180
SWIDTH 240 0
DWIDTH 12 0
BBX 8 8 0 19
BITMAP
0F
0F
0F
0F
F0
F0
F0
F0
ENDCHAR
STARTCHAR 00B7
ENCODING 183
SWIDTH 320 0
DWIDTH 16 0
BBX 12 11 0 8
BITMAP
0F00
0F00
0F00
FFF0
FFF0
FFF0
FFF0
0F00
0F00
0F00
0F00
ENDCHAR
STARTCHAR 00BA
ENCODING 186
SWIDTH 300 0
DWIDTH 15 0
BBX 12 19 0 8
BITMAP
0F00
0F00
0F00
0F00
F0F0
F0F0
F0F0
F0F0
0F00
0F00
0F00
0F00
0000
0000
0000
FFF0
FFF0
FFF0
FFF0
ENDCHAR
STARTCHAR 00BB
ENCODING 187
SWIDTH 720 0
DWIDTH 36 0
BBX 31 27 1 0
BITMAP
F001E000
F001E000
F001E000
F001E000
0F001E00
0F001E00
0F001E00
0F001E00
00F001E0
00F001E0
00F001E0
00F001E0
000E001E
000E001E
000E001E
000E001E
00F001E0
00F001E0
00F001E0
0F001E00
0F001E00
0F001E00
0F001E00
F001E000
F001E000
F001E000
F001E000
ENDCHAR
STARTCHAR 00BF
ENCODING 191
SWIDTH 400 0
DWIDTH 20 0
BBX 15 27 1 0
BITMAP
00F0
00F0
00F0
00F0
0000
0000
0000
0000
00F0
00F0
00F0
00F0
0F00
0F00
0F00
F000
F000
F000
F000
F00E
F00E
F00E
F00E
0FF0
0FF0
0FF0
0FF0
ENDCHAR
STARTCHAR 00C0
ENCODING 192
SWIDTH 400 0
DWIDTH 20 0
BBX 15 38 1 0
BITMAP
0F00
0F00
0F00
0F00
00F0
00F0
00F0
00F0
0000
0000
0000
0FF0
0FF0
0FF0
0FF0
F00E
F00E
F00E
F00E
F00E
F00E
F00E
F00E
FFFE
FFFE
FFFE
FFFE
F00E
F00E
F00E
F00E
F00E
F00E
F00E
F00E
F00E
F00E
F00E
ENDCHAR
STARTCHAR 00C1
ENCODING 193
SWIDTH 380 0
DWIDTH 19 0
BBX 15 38 0 0
BITMAP
000E
000E
000E
000E
00F0
00F0
00F0
00F0
0000
0000
0000
0FF0
0FF0
0FF0
0FF0
F00E
F00E
F00E
F00E
F00E
F00E
F00E
F00E
FFFE
FFFE
FFFE
FFFE
F00E
F00E
F00E
F00E
F00E
F00E
F00E
F00E
F00E
F00E
F00E
ENDCHAR
STARTCHAR 00C4
ENCODING 196
SWIDTH 380 0
DWIDTH 19 0
BBX 15 34 0 0
BITMAP
0F0E
0F0E
0F0E
0F0E
0000
0000
0000
0FF0
0FF0
0FF0
0FF0
F00E
F00E
F00E
F00E
F00E
F00E
F00E
F00E
FFFE
FFFE
FFFE
FFFE
F00E
F00E
F00E
F00E
F00E
F00E
F00E
F00E
F00E
F00E
F00E
ENDCHAR
STARTCHAR 00C5
ENCODING 197
SWIDTH 5280 0
DWIDTH 264 0
BBX 258 37 0 -9
BITMAP
000000001FF0000000000000000000000000000000000000000000000000000000
03E3E000FFFC000000000000000000000000000000000000000000000000000000
03E3E001FFFF000000000000000000000000000000000000000000000000000000
03E3E007FFFFC0000000000000000001F00000000000000000000000000000F800
07E3E00FFFFFE0000000000000000001F00000000000000000000000000000F800
0FC7E01FF01FF0000000000000000001F00000000000000000000000000000F800
0FC7C03FC007F8000000000000000001F00000000000000000000000000000F800
1F87C07F0001FC000000000000000001F00000000000000000000000000000F800
3F8FC07E0000FC000000000000000001F00000000000000000000000000000F800
3F1F80FC0FE07E0000003FC0003FC001F00003C07FC00000FC07F0003FC000F800
7E3F80F83FF83E000001FFF800FFF00FFF87CFC3FFF001F3FF1FFC01FFF007FFC0
7E7F01F87FFC3F000003FFFC01FFF80FFF87DFC7FFF801F7FFBFFE03FFF807FFC0
7C7E01F0FFFE1F000007FFFE03FFFC0FFF87DFCFFFFC01FFFFFFFE07FFFC07FFC0
FCFE01F1FFFE1F000007E03F07E0FC0FFF87FFCFC07E01FE1FF07F07E07E07FFC0
F8FC03F1F83F1F80000FC01F07C07E01F007FC1F803E01F80FE03F0FC03E00F800
F9F803E1F01F0F80000F801F07C03E01F007F01F003E01F807E01F0F803E00F800
F9F003E3F01F8F80000F801F07C00001F007F01F003E01F007C01F0F803E00F800
F9F003E3E00F8F800000003F07F00001F007E000007E01F007C01F00003E00F800
F9F003E3E00F8F800000007F03FE0001F007E00000FE01F007C01F0000FE00F800
F9F003E3E00F8F8000003FFF03FFE001F007E0007FFE01F007C01F003FFE00F800
F9F003E3E00F8F800001FFFF01FFF801F007C003FFFE01F007C01F03FFFE00F800
F9F807E3E01F8F800007FFDF007FFE01F007C00FFFBE01F007C01F07FFBE00F800
FCFC0FC3E01F1F80000FF81F0007FE01F007C01FF03E01F007C01F0FF83E00F800
7CFE1FC7C03F1F00001FC01F0000FF01F007C01F803E01F007C01F1F803E00F800
7C7FFF87C07F1F00001F801F00003F01F007C03F003E01F007C01F1F003E00F800
7E3FFF0FC07E3F00001F001F0FC01F01F007C03E003E01F007C01F1F003E00F800
3E1FFE0F80FC3F00001F003F07C01F01F007C03E007E01F007C01F1F007E00F800
3F0FFC1F80F87E00001F003F07C01F01F007C03E007E01F007C01F1F007E00F800
1F83F03F01F8FE00001FC0FF07E03E01F807C03F81FE01F007C01F1F81FE00F800
1FC0007F01F0FC00000FFFFFC3FFFE01FF87C01FFFFF81F007C01F0FFFFFC0FFC0
0FF001FE01F1F800000FFFFFC3FFFC00FF87C00FFFFF81F007C01F0FFFFFC07FC0
07FC07FC03F1F0000003FFDFC0FFF800FF87C007FFBF81F007C01F07FFBFC07FC0
03FFFFF803E3F0000000FE07C03FC0003F87C001FC0F81F007C01F01FC0FC01FC0
01FFFFF003E3E00000000000000000000000000000000000000000000000000000
007FFFC003E3E00000000000000000000000000000000000000000000000000000
003FFF800000000000000000000000000000000000000000000000000000000000
0007FC000000000000000000000000000000000000000000000000000000000000
ENDCHAR
STARTCHAR 00C7
ENCODING 199
SWIDTH 400 0
DWIDTH 20 0
BBX 16 39 0 -12
BITMAP
0FFF
0FFF
0FFF
0FFF
1000
F000
F000
F000
F000
F000
F000
F000
F000
F000
F000
F000
F000
F000
F000
F000
F000
F000
F000
0FFF
0FFF
0FFF
0FFF
00F0
00F0
00F0
00F0
0F00
0F00
0F00
0F00
00F0
00F0
00F0
00F0
ENDCHAR
STARTCHAR 00C8
ENCODING 200
SWIDTH 380 0
DWIDTH 19 0
BBX 16 38 0 0
BITMAP
0F00
0F00
0F00
0F00
00F0
00F0
00F0
00F0
0000
0000
0000
FFFF
FFFF
FFFF
FFFF
F000
F000
F000
F000
F000
F000
F000
F000
FFF0
FFF0
FFF0
FFF0
F000
F000
F000
F000
F000
F000
F000
FFFF
FFFF
FFFF
FFFF
ENDCHAR
STARTCHAR 00C9
ENCODING 201
SWIDTH 380 0
DWIDTH 19 0
BBX 15 38 0 0
BITMAP
000E
000E
000E
000E
00F0
00F0
00F0
00F0
0000
0000
0000
FFFE
FFFE
FFFE
FFFE
F000
F000
F000
F000
F000
F000
F000
F000
FFF0
FFF0
FFF0
FFF0
F000
F000
F000
F000
F000
F000
F000
FFFE
FFFE
FFFE
FFFE
ENDCHAR
STARTCHAR 00CB
ENCODING 203
SWIDTH 380 0
DWIDTH 19 0
BBX 15 34 0 0
BITMAP
0F0E
0F0E
0F0E
0F0E
0000
0000
0000
FFFE
FFFE
FFFE
FFFE
F000
F000
F000
F000
F000
F000
F000
F000
FFF0
FFF0
FFF0
FFF0
F000
F000
F000
F000
F000
F000
F000
FFFE
FFFE
FFFE
FFFE
ENDCHAR
STARTCHAR 00CC
ENCODING 204
SWIDTH 320 0
DWIDTH 16 0
BBX 12 38 0 0
BITMAP
F000
F000
F000
F000
0F00
0F00
0F00
0F00
0000
0000
0000
FFF0
FFF0
FFF0
FFF0
0F00
0F00
0F00
0F00
0F00
0F00
0F00
0F00
0F00
0F00
0F00
0F00
0F00
0F00
0F00
0F00
0F00
0F00
0F00
FFF0
FFF0
FFF0
FFF0
ENDCHAR
STARTCHAR 00CD
ENCODING 205
SWIDTH 320 0
DWIDTH 16 0
BBX 12 38 0 0
BITMAP
00F0
00F0
00F0
00F0
0F00
0F00
0F00
0F00
0000
0000
0000
FFF0
FFF0
FFF0
FFF0
0F00
0F00
0F00
0F00
0F00
0F00
0F00
0F00
0F00
0F00
0F00
0F00
0F00
0F00
0F00
0F00
0F00
0F00
0F00
FFF0
FFF0
FFF0
FFF0
ENDCHAR
STARTCHAR 00CF
ENCODING 207
SWIDTH 320 0
DWIDTH 16 0
BBX 12 34 0 0
BITMAP
F0F0
F0F0
F0F0
F0F0
0000
0000
0000
FFF0
FFF0
FFF0
FFF0
0F00
0F00
0F00
0F00
0F00
0F00
0F00
0F00
0F00
0F00
0F00
0F00
0F00
0F00
0F00
0F00
0F00
0F00
0F00
FFF0
FFF0
FFF0
FFF0
ENDCHAR
STARTCHAR 00D1
ENCODING 209
SWIDTH 480 0
DWIDTH 24 0
BBX 19 34 1 0
BITMAP
FFFE00
FFFE00
FFFE00
FFFE00
000000
000000
000000
FF01E0
FF01E0
FF01E0
FF01E0
FF01E0
FF01E0
FF01E0
FF01E0
F0F1E0
F0F1E0
F0F1E0
F0F1E0
F0F1E0
F0F1E0
F0F1E0
F0F1E0
F0F1E0
F0F1E0
F0F1E0
F00FE0
F00FE0
F00FE0
F00FE0
F00FE0
F00FE0
F00FE0
F00FE0
ENDCHAR
STARTCHAR 00D2
ENCODING 210
SWIDTH 460 0
DWIDTH 23 0
BBX 19 38 0 0
BITMAP
0F0000
0F0000
0F0000
0F0000
00F000
00F000
00F000
00F000
000000
000000
000000
0FFF00
0FFF00
0FFF00
0FFF00
F000E0
F000E0
F000E0
F000E0
F000E0
F000E0
F000E0
F000E0
F000E0
F000E0
F000E0
F000E0
F000E0
F000E0
F000E0
F000E0
F000E0
F000E0
F000E0
0FFF00
0FFF00
0FFF00
0FFF00
ENDCHAR
STARTCHAR 00D3
ENCODING 211
SWIDTH 460 0
DWIDTH 23 0
BBX 19 38 0 0
BITMAP
000F00
000F00
000F00
000F00
00F000
00F000
00F000
00F000
000000
000000
000000
0FFF00
0FFF00
0FFF00
0FFF00
F000E0
F000E0
F000E0
F000E0
F000E0
F000E0
F000E0
F000E0
F000E0
F000E0
F000E0
F000E0
F000E0
F000E0
F000E0
F000E0
F000E0
F000E0
F000E0
0FFF00
0FFF00
0FFF00
0FFF00
ENDCHAR
STARTCHAR 00D6
ENCODING 214
SWIDTH 460 0
DWIDTH 23 0
BBX 19 34 0 0
BITMAP
0F1E00
0F1E00
0F1E00
0F1E00
000000
000000
000000
0FFE00
0FFE00
0FFE00
0FFE00
F001E0
F001E0
F001E0
F001E0
F001E0
F001E0
F001E0
F001E0
F001E0
F001E0
F001E0
F001E0
F001E0
F001E0
F001E0
F001E0
F001E0
F001E0
F001E0
0FFE00
0FFE00
0FFE00
0FFE00
ENDCHAR
STARTCHAR 00D9
ENCODING 217
SWIDTH 380 0
DWIDTH 19 0
BBX 15 38 0 0
BITMAP
0F00
0F00
0F00
0F00
00F0
00F0
00F0
00F0
0000
0000
0000
F00E
F00E
F00E
F00E
F00E
F00E
F00E
F00E
F00E
F00E
F00E
F00E
F00E
F00E
F00E
F00E
F00E
F00E
F00E
F00E
F00E
F00E
F00E
0FF0
0FF0
0FF0
0FF0
ENDCHAR
STARTCHAR 00DA
ENCODING 218
SWIDTH 420 0
DWIDTH 21 0
BBX 16 38 1 0
BITMAP
000F
000F
000F
000F
00F0
00F0
00F0
00F0
0000
0000
0000
F00F
F00F
F00F
F00F
F00F
F00F
F00F
F00F
F00F
F00F
F00F
F00F
F00F
F00F
F00F
F00F
F00F
F00F
F00F
F00F
F00F
F00F
F00F
0FF0
0FF0
0FF0
0FF0
ENDCHAR
STARTCHAR 00DC
ENCODING 220
SWIDTH 400 0
DWIDTH 20 0
BBX 15 34 1 0
BITMAP
0F0E
0F0E
0F0E
0F0E
0000
0000
0000
F00E
F00E
F00E
F00E
F00E
F00E
F00E
F00E
F00E
F00E
F00E
F00E
F00E
F00E
F00E
F00E
F00E
F00E
F00E
F00E
F00E
F00E
F00E
0FF0
0FF0
0FF0
0FF0
ENDCHAR
STARTCHAR 00E0
ENCODING 224
SWIDTH 380 0
DWIDTH 19 0
BBX 15 30 0 0
BITMAP
0F00
0F00
0F00
00F0
00F0
00F0
00F0
0000
0000
0000
0000
0FF0
0FF0
0FF0
0FF0
000E
000E
000E
000E
0FFE
0FFE
0FFE
F00E
F00E
F00E
F00E
0FFE
0FFE
0FFE
0FFE
ENDCHAR
STARTCHAR 00E1
ENCODING 225
SWIDTH 380 0
DWIDTH 19 0
BBX 15 30 0 0
BITMAP
000E
000E
000E
00F0
00F0
00F0
00F0
0000
0000
0000
0000
0FF0
0FF0
0FF0
0FF0
000E
000E
000E
000E
0FFE
0FFE
0FFE
F00E
F00E
F00E
F00E
0FFE
0FFE
0FFE
0FFE
ENDCHAR
STARTCHAR 00E2
ENCODING 226
SWIDTH 380 0
DWIDTH 19 0
BBX 0 0 0 0
BITMAP
ENDCHAR
STARTCHAR 00E3
ENCODING 227
SWIDTH 380 0
DWIDTH 19 0
BBX 0 0 0 0
BITMAP
ENDCHAR
STARTCHAR 00E4
ENCODING 228
SWIDTH 400 0
DWIDTH 20 0
BBX 15 27 1 0
BITMAP
0F0E
0F0E
0F0E
0F0E
0000
0000
0000
0000
0FF0
0FF0
0FF0
0FF0
000E
000E
000E
000E
0FFE
0FFE
0FFE
F00E
F00E
F00E
F00E
0FFE
0FFE
0FFE
0FFE
ENDCHAR
STARTCHAR 00E5
ENCODING 229
SWIDTH 380 0
DWIDTH 19 0
BBX 0 0 0 0
BITMAP
ENDCHAR
STARTCHAR 00E7
ENCODING 231
SWIDTH 420 0
DWIDTH 21 0
BBX 16 27 1 -8
BITMAP
0FFF
0FFF
0FFF
0FFF
F000
F000
F000
F000
F000
F000
F000
F000
F000
F000
F000
0FFF
0FFF
0FFF
0FFF
00F0
00F0
00F0
00F0
0F00
0F00
0F00
0F00
ENDCHAR
STARTCHAR 00E8
ENCODING 232
SWIDTH 400 0
DWIDTH 20 0
BBX 15 30 1 0
BITMAP
0F00
0F00
0F00
00F0
00F0
00F0
00F0
0000
0000
0000
0000
0FF0
0FF0
0FF0
0FF0
F00E
F00E
F00E
F00E
FFF0
FFF0
FFF0
FFF0
F000
F000
F000
0FF0
0FF0
0FF0
0FF0
ENDCHAR
STARTCHAR 00E9
ENCODING 233
SWIDTH 400 0
DWIDTH 20 0
BBX 15 30 1 0
BITMAP
000E
000E
000E
00F0
00F0
00F0
00F0
0000
0000
0000
0000
0FF0
0FF0
0FF0
0FF0
F00E
F00E
F00E
F00E
FFF0
FFF0
FFF0
FFF0
F000
F000
F000
0FF0
0FF0
0FF0
0FF0
ENDCHAR
STARTCHAR 00EB
ENCODING 235
SWIDTH 400 0
DWIDTH 20 0
BBX 15 27 1 0
BITMAP
F0F0
F0F0
F0F0
F0F0
0000
0000
0000
0000
0FF0
0FF0
0FF0
0FF0
F00E
F00E
F00E
F00E
FFF0
FFF0
FFF0
FFF0
F000
F000
F000
0FF0
0FF0
0FF0
0FF0
ENDCHAR
STARTCHAR 00EC
ENCODING 236
SWIDTH 240 0
DWIDTH 12 0
BBX 8 30 0 0
BITMAP
F0
F0
F0
0F
0F
0F
0F
00
00
00
00
0F
0F
0F
0F
0F
0F
0F
0F
0F
0F
0F
0F
0F
0F
0F
0F
0F
0F
0F
ENDCHAR
STARTCHAR 00ED
ENCODING 237
SWIDTH 260 0
DWIDTH 13 0
BBX 8 30 1 0
BITMAP
0F
0F
0F
F0
F0
F0
F0
00
00
00
00
F0
F0
F0
F0
F0
F0
F0
F0
F0
F0
F0
F0
F0
F0
F0
F0
F0
F0
F0
ENDCHAR
STARTCHAR 00EF
ENCODING 239
SWIDTH 320 0
DWIDTH 16 0
BBX 12 27 0 0
BITMAP
F0F0
F0F0
F0F0
F0F0
0000
0000
0000
0000
0F00
0F00
0F00
0F00
0F00
0F00
0F00
0F00
0F00
0F00
0F00
0F00
0F00
0F00
0F00
0F00
0F00
0F00
0F00
ENDCHAR
STARTCHAR 00F1
ENCODING 241
SWIDTH 400 0
DWIDTH 20 0
BBX 15 27 1 0
BITMAP
FFF0
FFF0
FFF0
FFF0
0000
0000
0000
0000
FFF0
FFF0
FFF0
FFF0
F00E
F00E
F00E
F00E
F00E
F00E
F00E
F00E
F00E
F00E
F00E
F00E
F00E
F00E
F00E
ENDCHAR
STARTCHAR 00F2
ENCODING 242
SWIDTH 380 0
DWIDTH 19 0
BBX 15 30 0 0
BITMAP
0F00
0F00
0F00
00F0
00F0
00F0
00F0
0000
0000
0000
0000
0FF0
0FF0
0FF0
0FF0
F01E
F01E
F01E
F01E
F01E
F01E
F01E
F01E
F01E
F01E
F01E
0FF0
0FF0
0FF0
0FF0
ENDCHAR
STARTCHAR 00F3
ENCODING 243
SWIDTH 380 0
DWIDTH 19 0
BBX 15 31 0 0
BITMAP
000E
000E
000E
000E
00F0
00F0
00F0
00F0
0000
0000
0000
0000
0FF0
0FF0
0FF0
0FF0
F00E
F00E
F00E
F00E
F00E
F00E
F00E
F00E
F00E
F00E
F00E
0FF0
0FF0
0FF0
0FF0
ENDCHAR
STARTCHAR 00F6
ENCODING 246
SWIDTH 400 0
DWIDTH 20 0
BBX 15 27 1 0
BITMAP
F0F0
F0F0
F0F0
F0F0
0000
0000
0000
0000
0FF0
0FF0
0FF0
0FF0
F00E
F00E
F00E
F00E
F00E
F00E
F00E
F00E
F00E
F00E
F00E
0FF0
0FF0
0FF0
0FF0
ENDCHAR
STARTCHAR 00F7
ENCODING 247
SWIDTH 460 0
DWIDTH 23 0
BBX 19 19 0 4
BITMAP
00F000
00F000
00F000
00F000
000000
000000
000000
FFFFE0
FFFFE0
FFFFE0
FFFFE0
000000
000000
000000
000000
00F000
00F000
00F000
00F000
ENDCHAR
STARTCHAR 00F9
ENCODING 249
SWIDTH 400 0
DWIDTH 20 0
BBX 15 30 1 0
BITMAP
0F00
0F00
0F00
00F0
00F0
00F0
00F0
0000
0000
0000
0000
F00E
F00E
F00E
F00E
F00E
F00E
F00E
F00E
F00E
F00E
F00E
F00E
F00E
F00E
F00E
0FF0
0FF0
0FF0
0FF0
ENDCHAR
STARTCHAR 00FA
ENCODING 250
SWIDTH 400 0
DWIDTH 20 0
BBX 15 30 1 0
BITMAP
000E
000E
000E
00F0
00F0
00F0
00F0
0000
0000
0000
0000
F00E
F00E
F00E
F00E
F00E
F00E
F00E
F00E
F00E
F00E
F00E
F00E
F00E
F00E
F00E
0FF0
0FF0
0FF0
0FF0
ENDCHAR
STARTCHAR 00FC
ENCODING 252
SWIDTH 400 0
DWIDTH 20 0
BBX 15 27 1 0
BITMAP
0F0E
0F0E
0F0E
0F0E
0000
0000
0000
0000
F00E
F00E
F00E
F00E
F00E
F00E
F00E
F00E
F00E
F00E
F00E
F00E
F00E
F00E
F00E
0FF0
0FF0
0FF0
0FF0
ENDCHAR
STARTCHAR 0131
ENCODING 305
SWIDTH 180 0
DWIDTH 9 0
BBX 4 11 1 16
BITMAP
F0
F0
F0
F0
F0
F0
F0
F0
F0
F0
F0
ENDCHAR
STARTCHAR 02D9
ENCODING 729
SWIDTH 320 0
DWIDTH 16 0
BBX 12 11 0 8
BITMAP
0F00
0F00
0F00
FFF0
FFF0
FFF0
FFF0
0F00
0F00
0F00
0F00
ENDCHAR
STARTCHAR 2010
ENCODING 8208
SWIDTH 380 0
DWIDTH 19 0
BBX 15 4 0 11
BITMAP
FFFE
FFFE
FFFE
FFFE
ENDCHAR
STARTCHAR 2022
ENCODING 8226
SWIDTH 380 0
DWIDTH 19 0
BBX 15 15 0 4
BITMAP
0FF0
0FF0
0FF0
FFFE
FFFE
FFFE
FFFE
FFFE
FFFE
FFFE
FFFE
0FF0
0FF0
0FF0
0FF0
ENDCHAR
STARTCHAR 2026
ENCODING 8230
SWIDTH 480 0
DWIDTH 24 0
BBX 20 4 0 0
BITMAP
F0F0F0
F0F0F0
F0F0F0
F0F0F0
ENDCHAR
STARTCHAR 2039
ENCODING 8249
SWIDTH 700 0
DWIDTH 35 0
BBX 27 27 0 0
BITMAP
FFFFFFE0
FFFFFFE0
FFFFFFE0
FFFFFFE0
F00001E0
F00001E0
F00001E0
F00001E0
F01FE1E0
F01FE1E0
F01FE1E0
F01FE1E0
F1FFE1E0
F1FFE1E0
F1FFE1E0
F1FFE1E0
F01FE1E0
F01FE1E0
F01FE1E0
F00001E0
F00001E0
F00001E0
F00001E0
FFFFFFE0
FFFFFFE0
FFFFFFE0
FFFFFFE0
ENDCHAR
STARTCHAR 203A
ENCODING 8250
SWIDTH 700 0
DWIDTH 35 0
BBX 27 27 0 0
BITMAP
FFFFFFE0
FFFFFFE0
FFFFFFE0
FFFFFFE0
F00001E0
F00001E0
F00001E0
F00001E0
F0FF01E0
F0FF01E0
F0FF01E0
F0FF01E0
F0FFF1E0
F0FFF1E0
F0FFF1E0
F0FFF1E0
F0FF01E0
F0FF01E0
F0FF01E0
F00001E0
F00001E0
F00001E0
F00001E0
FFFFFFE0
FFFFFFE0
FFFFFFE0
FFFFFFE0
ENDCHAR
STARTCHAR 2219
ENCODING 8729
SWIDTH 320 0
DWIDTH 16 0
BBX 12 11 0 8
BITMAP
0F00
0F00
0F00
FFF0
FFF0
FFF0
FFF0
0F00
0F00
0F00
0F00
ENDCHAR
STARTCHAR 2264
ENCODING 8804
SWIDTH 380 0
DWIDTH 19 0
BBX 12 19 0 4
BITMAP
00F0
00F0
00F0
00F0
0FF0
0FF0
0FF0
0FF0
FFF0
FFF0
FFF0
0FF0
0FF0
0FF0
0FF0
00F0
00F0
00F0
00F0
ENDCHAR
STARTCHAR 2265
ENCODING 8805
SWIDTH 380 0
DWIDTH 19 0
BBX 12 19 0 4
BITMAP
F000
F000
F000
F000
FF00
FF00
FF00
FF00
FFF0
FFF0
FFF0
FF00
FF00
FF00
FF00
F000
F000
F000
F000
ENDCHAR
STARTCHAR F001
ENCODING 61441
SWIDTH 380 0
DWIDTH 19 0
BBX 15 27 0 0
BITMAP
001E
001E
001E
001E
01FE
01FE
01FE
01FE
1FFE
1FFE
1FFE
1FFE
FFFE
FFFE
FFFE
1FFE
1FFE
1FFE
1FFE
01FE
01FE
01FE
01FE
001E
001E
001E
001E
ENDCHAR
STARTCHAR F002
ENCODING 61442
SWIDTH 380 0
DWIDTH 19 0
BBX 15 27 0 0
BITMAP
F000
F000
F000
F000
FF00
FF00
FF00
FF00
FFF0
FFF0
FFF0
FFF0
FFFE
FFFE
FFFE
FFF0
FFF0
FFF0
FFF0
FF00
FF00
FF00
FF00
F000
F000
F000
F000
ENDCHAR
ENDFONT
